<?xml version="1.0" encoding="utf-8"?>
<!-- Generator: Adobe Illustrator 16.0.0, SVG Export Plug-In . SVG Version: 6.00 Build 0)  -->
<!DOCTYPE svg PUBLIC "-//W3C//DTD SVG 1.1//EN" "http://www.w3.org/Graphics/SVG/1.1/DTD/svg11.dtd">
<svg version="1.1" id="Capa_1" xmlns="http://www.w3.org/2000/svg" xmlns:xlink="http://www.w3.org/1999/xlink" x="0px" y="0px"
	 width="612px" height="485.379px" viewBox="0 153.311 612 485.379" enable-background="new 0 153.311 612 485.379"
	 xml:space="preserve">
<g>
	<path d="M385.528,387.094l-116.069-73.862c-3.25-2.058-7.365-2.195-10.752-0.348c-3.366,1.857-5.466,5.402-5.466,9.253v147.725
		c0,3.852,2.1,7.396,5.477,9.254c1.583,0.865,3.324,1.298,5.075,1.298c1.973,0,3.946-0.56,5.667-1.646l116.069-73.862
		c3.039-1.941,4.886-5.297,4.886-8.905C390.414,392.391,388.567,389.036,385.528,387.094z M274.345,450.647V341.353L360.204,396
		L274.345,450.647z"/>
	<path d="M601.448,153.311H495.931H116.069H10.552C4.727,153.311,0,158.027,0,163.862v116.069V396v116.069v116.068
		c0,5.835,4.727,10.552,10.552,10.552h105.517h379.862h105.518c5.824,0,10.552-4.717,10.552-10.552V512.069V396V279.931V163.862
		C612,158.027,607.272,153.311,601.448,153.311z M105.517,385.448H21.104v-94.965h84.414V385.448z M21.104,406.552h84.414v94.966
		H21.104V406.552z M126.621,512.069V396V279.931V174.414h358.758v105.517V396v116.069v105.517H126.621V512.069z M590.896,385.448
		h-84.414v-94.965h84.414V385.448z M506.482,406.552h84.414v94.966h-84.414V406.552z M590.896,174.414v94.965h-84.414v-94.965
		H590.896z M21.104,174.414h84.414v94.965H21.104V174.414z M21.104,617.586v-94.965h84.414v94.965H21.104z M590.896,617.586h-84.414
		v-94.965h84.414V617.586z"/>
</g>
</svg>
